<?xml version="1.0" encoding="UTF-8" standalone="no"?>
<!-- Created with Inkscape (http://www.inkscape.org/) -->

<svg
   width="264mm"
   height="264mm"
   viewBox="0 0 264 264"
   version="1.1"
   id="svg1"
   inkscape:version="1.3.2 (1:1.3.2+202311252150+091e20ef0f)"
   sodipodi:docname="knob_disabled.svg"
   xmlns:inkscape="http://www.inkscape.org/namespaces/inkscape"
   xmlns:sodipodi="http://sodipodi.sourceforge.net/DTD/sodipodi-0.dtd"
   xmlns="http://www.w3.org/2000/svg"
   xmlns:svg="http://www.w3.org/2000/svg">
  <sodipodi:namedview
     id="namedview1"
     pagecolor="#505050"
     bordercolor="#ffffff"
     borderopacity="1"
     inkscape:showpageshadow="0"
     inkscape:pageopacity="0"
     inkscape:pagecheckerboard="1"
     inkscape:deskcolor="#d1d1d1"
     inkscape:document-units="mm"
     inkscape:zoom="0.5253601"
     inkscape:cx="758.52734"
     inkscape:cy="367.36707"
     inkscape:window-width="1920"
     inkscape:window-height="1016"
     inkscape:window-x="0"
     inkscape:window-y="0"
     inkscape:window-maximized="1"
     inkscape:current-layer="layer1"
     showgrid="false" />
  <defs
     id="defs1" />
  <g
     inkscape:label="Livello 1"
     inkscape:groupmode="layer"
     id="layer1"
     transform="translate(4,4)">
    <path
       id="circle1"
       style="fill:#999999;stroke-width:7.27862;stroke-opacity:0.94902"
       d="m 144.93298,227.42854 v 31.37903 C 210.69487,250.30145 259.93958,194.32826 260,128.01856 260.00026,55.116901 200.90188,-3.9817166 128.00022,-3.9817497 55.098353,-3.9820115 -4.0003535,55.116693 -4.0000941,128.01856 -3.9443576,194.26836 45.210021,250.21395 110.90172,258.79531 V 227.42854 C 53.827003,218.95722 11.560502,185.84537 11.541769,128.1454 11.541474,63.827051 63.681871,11.686652 128.00022,11.686945 c 64.31814,0 116.45822,52.140313 116.45792,116.458455 -2.5e-4,57.71412 -42.27124,90.84704 -99.35995,99.32044 m 0,-92.23857 6.43971,-6.43972 -24.17984,-24.18037 -22.89605,22.89606 6.43971,7.72403 16.45634,15.875 z"
       sodipodi:nodetypes="cccccccccscccccccc" />
  </g>
</svg>
