<?xml version="1.0" encoding="UTF-8" standalone="no"?>
<!-- Created with Inkscape (http://www.inkscape.org/) -->

<svg
   width="264mm"
   height="264mm"
   viewBox="0 0 264 264"
   version="1.1"
   id="svg1"
   inkscape:version="1.3.2 (1:1.3.2+202311252150+091e20ef0f)"
   sodipodi:docname="knob.svg"
   xmlns:inkscape="http://www.inkscape.org/namespaces/inkscape"
   xmlns:sodipodi="http://sodipodi.sourceforge.net/DTD/sodipodi-0.dtd"
   xmlns="http://www.w3.org/2000/svg"
   xmlns:svg="http://www.w3.org/2000/svg">
  <sodipodi:namedview
     id="namedview1"
     pagecolor="#505050"
     bordercolor="#ffffff"
     borderopacity="1"
     inkscape:showpageshadow="0"
     inkscape:pageopacity="0"
     inkscape:pagecheckerboard="1"
     inkscape:deskcolor="#d1d1d1"
     inkscape:document-units="mm"
     inkscape:zoom="0.5253601"
     inkscape:cx="550.09888"
     inkscape:cy="405.4362"
     inkscape:window-width="1920"
     inkscape:window-height="1016"
     inkscape:window-x="0"
     inkscape:window-y="0"
     inkscape:window-maximized="1"
     inkscape:current-layer="layer1" />
  <defs
     id="defs1" />
  <g
     inkscape:label="Livello 1"
     inkscape:groupmode="layer"
     id="layer1"
     transform="translate(4,4)">
    <path
       id="circle1"
       style="stroke-width:7.27862;stroke-opacity:0.94902"
       d="M 128.00022,-3.9817497 A 131.99984,131.99984 0 0 0 -4.0000941,128.01856 131.99984,131.99984 0 0 0 110.90172,258.79531 V 243.30354 A 116.45792,116.45792 0 0 1 11.541769,128.1454 116.45792,116.45792 0 0 1 128.00022,11.686945 116.45792,116.45792 0 0 1 244.45814,128.1454 116.45792,116.45792 0 0 1 145.09819,243.34084 V 135.22727 l 6.43971,-6.43972 -24.17984,-24.18037 -22.89605,22.89606 6.43971,6.43971 v 109.36059 h 34.03126 v 15.50403 A 131.99984,131.99984 0 0 0 260,128.01856 131.99984,131.99984 0 0 0 128.00022,-3.9817497 Z" />
  </g>
</svg>
