<?xml version="1.0" encoding="UTF-8" standalone="no"?>
<!-- Created with Inkscape (http://www.inkscape.org/) -->

<svg
   width="264mm"
   height="264mm"
   viewBox="0 0 264 264"
   version="1.1"
   id="svg1"
   inkscape:version="1.3.2 (1:1.3.2+202311252150+091e20ef0f)"
   sodipodi:docname="knob_alt.svg"
   xmlns:inkscape="http://www.inkscape.org/namespaces/inkscape"
   xmlns:sodipodi="http://sodipodi.sourceforge.net/DTD/sodipodi-0.dtd"
   xmlns="http://www.w3.org/2000/svg"
   xmlns:svg="http://www.w3.org/2000/svg">
  <sodipodi:namedview
     id="namedview1"
     pagecolor="#505050"
     bordercolor="#ffffff"
     borderopacity="1"
     inkscape:showpageshadow="0"
     inkscape:pageopacity="0"
     inkscape:pagecheckerboard="1"
     inkscape:deskcolor="#d1d1d1"
     inkscape:document-units="mm"
     inkscape:zoom="0.5253601"
     inkscape:cx="552.00233"
     inkscape:cy="405.43619"
     inkscape:window-width="1920"
     inkscape:window-height="1016"
     inkscape:window-x="0"
     inkscape:window-y="0"
     inkscape:window-maximized="1"
     inkscape:current-layer="layer1" />
  <defs
     id="defs1" />
  <g
     inkscape:label="Livello 1"
     inkscape:groupmode="layer"
     id="layer1"
     transform="translate(4,4)">
    <path
       style="fill:#000000;stroke:none;stroke-width:57.5533;stroke-dasharray:none;stroke-dashoffset:0;stroke-opacity:0.94902"
       d="M 414.95348,916.63236 C 350.98655,903.10745 295.50586,878.20533 243.64241,839.74055 218.60613,821.17229 173.41322,775.49966 155.74834,750.91351 117.85738,698.17649 94.041058,644.20322 81.835231,583.40936 53.699193,443.2715 97.158861,299.19345 197.83483,198.84597 232.67507,164.1194 266.64349,139.86775 311.21511,117.89843 358.10508,94.786399 409.5481,80.184651 461.44288,75.257311 617.80986,60.410474 776.5746,139.55694 859.73386,273.81101 c 99.14181,160.05658 83.19471,362.02231 -39.85099,504.70262 -53.3996,61.92065 -126.14627,108.24427 -204.29674,130.09203 -17.32625,4.84372 -47.31734,11.71547 -51.13108,11.71547 -0.5676,0 -1.03198,-88.84457 -1.03198,-197.43237 V 525.45637 l 11.86649,-11.97292 11.86649,-11.97291 -45.17155,-45.17155 -45.17155,-45.17155 -42.8173,42.78557 -42.8173,42.78559 12.35657,12.45199 12.35657,12.45197 v 199.33929 c 0,158.27388 -0.49015,199.31168 -2.37932,199.20535 -1.30862,-0.0737 -9.66004,-1.67335 -18.55869,-3.55484 z"
       id="path4"
       transform="matrix(0.26458333,0,0,0.26458333,-4,-4)" />
    <circle
       style="fill:none;stroke:#000000;stroke-width:7.7647;stroke-dasharray:none;stroke-dashoffset:0;stroke-opacity:0.94902"
       id="path5"
       cx="128"
       cy="128"
       r="128.11765" />
  </g>
</svg>
