<?xml version="1.0" encoding="UTF-8" standalone="no"?>
<!-- Svg Vector Icons : http://www.onlinewebfonts.com/icon -->

<svg
   version="1.1"
   x="0px"
   y="0px"
   viewBox="0 0 1000 1000"
   enable-background="new 0 0 1000 1000"
   xml:space="preserve"
   id="svg2"
   sodipodi:docname="piano_alt.svg"
   inkscape:version="1.3.2 (1:1.3.2+202311252150+091e20ef0f)"
   xmlns:inkscape="http://www.inkscape.org/namespaces/inkscape"
   xmlns:sodipodi="http://sodipodi.sourceforge.net/DTD/sodipodi-0.dtd"
   xmlns="http://www.w3.org/2000/svg"
   xmlns:svg="http://www.w3.org/2000/svg"><defs
   id="defs2" /><sodipodi:namedview
   id="namedview2"
   pagecolor="#505050"
   bordercolor="#ffffff"
   borderopacity="1"
   inkscape:showpageshadow="0"
   inkscape:pageopacity="0"
   inkscape:pagecheckerboard="1"
   inkscape:deskcolor="#d1d1d1"
   showgrid="false"
   inkscape:zoom="0.417"
   inkscape:cx="563.54916"
   inkscape:cy="604.31655"
   inkscape:window-width="1920"
   inkscape:window-height="1016"
   inkscape:window-x="0"
   inkscape:window-y="0"
   inkscape:window-maximized="1"
   inkscape:current-layer="svg2" />
<metadata
   id="metadata1"> Svg Vector Icons : http://www.onlinewebfonts.com/icon </metadata>
<g
   id="g2"
   transform="matrix(1,0,0,0.83861125,0,159.77486)"
   style="fill:none;stroke:none"><g
     transform="matrix(0.1,0,0,-0.1,0,511)"
     id="g1"
     style="fill:none;stroke:none"><path
       d="M 189.9,4920.1 C 100,4830.2 100,4771.7 100,119 v -4715.7 l 103.4,-94.4 103.4,-98.9 h 4697.7 4702.2 l 94.4,103.4 98.9,103.4 V 114.5 4816.7 l -103.4,94.4 -103.4,98.9 H 4986.5 c -4648.3,0 -4706.7,0 -4796.6,-89.9 z m 1933,-3007.4 V -514.9 l 116.9,-89.9 c 89.9,-67.4 184.3,-94.4 359.6,-94.4 h 242.7 V -2407.5 -4115.8 H 1808.3 774.3 V 110 4335.7 h 674.3 674.3 v -2423 z m 3641.3,17.9 V -478.9 l 112.4,-107.9 c 89.9,-94.4 152.9,-112.4 359.6,-112.4 h 247.2 V -2407.5 -4115.8 H 5000 3516.5 v 1708.3 1708.3 h 247.2 c 206.8,0 269.7,18 359.6,112.4 l 112.4,107.9 v 2409.5 2405 H 5000 5764.2 Z M 9225.7,110 v -4225.7 h -1034 -1033.9 v 1708.3 1708.3 H 7405 c 206.8,0 269.7,18 359.6,112.4 l 112.4,107.9 v 2409.5 2405 h 674.3 674.3 V 110 Z"
       id="path1"
       style="fill:none;stroke:none" /></g></g>
<path
   style="fill:#000000;stroke:#000000;stroke-width:2.40186;stroke-dasharray:2.40186, 7.20557;stroke-opacity:0.94902"
   d="M 79.136691,579.13669 V 226.61871 h 65.947239 65.94725 v 202.60386 202.60386 l 8.9928,5.91146 c 11.24794,7.39386 25.92042,10.80906 46.76259,10.88453 l 16.18705,0.0586 V 790.16787 931.65468 H 181.05516 79.136691 Z"
   id="path2" /><path
   style="fill:#000000;stroke:#000000;stroke-width:2.40186;stroke-dasharray:2.40186, 7.20557;stroke-opacity:0.94902"
   d="M 352.51799,790.48849 V 649.32228 l 23.83405,-1.14768 c 24.36353,-1.17319 30.03893,-3.11546 42.71271,-14.61743 l 5.39568,-4.89681 V 427.63953 226.61871 H 500 575.53957 v 201.02082 201.02083 l 5.39568,4.89681 c 12.67379,11.50197 18.34919,13.44424 42.71271,14.61743 l 23.83405,1.14768 V 790.48849 931.65468 H 500 352.51799 Z"
   id="path3" /><path
   style="fill:#000000;stroke:#000000;stroke-width:2.40186;stroke-dasharray:2.40186, 7.20557;stroke-opacity:0.94902"
   d="M 717.02638,790.16787 V 648.68106 l 17.38609,-0.0572 c 23.31506,-0.0767 33.33978,-2.72662 44.87394,-11.86185 l 9.68241,-7.66861 V 427.85605 226.61871 h 65.94725 65.94724 V 579.13669 931.65468 H 818.94484 717.02638 Z"
   id="path4" /></svg>
