<?xml version="1.0" encoding="utf-8"?>
<!-- Svg Vector Icons : http://www.onlinewebfonts.com/icon -->
<!DOCTYPE svg PUBLIC "-//W3C//DTD SVG 1.1//EN" "http://www.w3.org/Graphics/SVG/1.1/DTD/svg11.dtd">
<svg version="1.1" xmlns="http://www.w3.org/2000/svg" xmlns:xlink="http://www.w3.org/1999/xlink" x="0px" y="0px" viewBox="0 0 1000 1000" enable-background="new 0 0 1000 1000" xml:space="preserve">
<metadata> Svg Vector Icons : http://www.onlinewebfonts.com/icon </metadata>
<g><g transform="translate(0.000000,511.000000) scale(0.100000,-0.100000)"><path d="M189.9,4920.1C100,4830.2,100,4771.7,100,119v-4715.7l103.4-94.4l103.4-98.9h4697.7h4702.2l94.4,103.4l98.9,103.4V114.5v4702.2l-103.4,94.4l-103.4,98.9H4986.5C338.2,5010,279.8,5010,189.9,4920.1z M2122.9,1912.7V-514.9l116.9-89.9c89.9-67.4,184.3-94.4,359.6-94.4h242.7v-1708.3v-1708.3H1808.3H774.3V110v4225.7h674.3h674.3V1912.7z M5764.2,1930.6V-478.9l112.4-107.9c89.9-94.4,152.9-112.4,359.6-112.4h247.2v-1708.3v-1708.3H5000H3516.5v1708.3v1708.3h247.2c206.8,0,269.7,18,359.6,112.4l112.4,107.9v2409.5v2405H5000h764.2V1930.6z M9225.7,110v-4225.7H8191.7H7157.8v1708.3v1708.3H7405c206.8,0,269.7,18,359.6,112.4l112.4,107.9v2409.5v2405h674.3h674.3V110z"/></g></g>
</svg>